<svg version="1.1"  width="256px" height="256px" viewBox="0.0 0.0 1024.0 1024.0" fill="none" stroke="none" stroke-linecap="square" stroke-miterlimit="10" xmlns:xlink="http://www.w3.org/1999/xlink" xmlns="http://www.w3.org/2000/svg"><clipPath id="p.0"><path d="m0 0l1024.0 0l0 1024.0l-1024.0 0l0 -1024.0z" clip-rule="nonzero"/></clipPath><g clip-path="url(#p.0)"><path fill="#000000" fill-opacity="0.0" d="m0 0l1024.0 0l0 1024.0l-1024.0 0z" fill-rule="evenodd"/><path fill="#ffffff" d="m208.31758 204.07611l183.96852 0l0 709.0079l-183.96852 0z" fill-rule="evenodd"/><path stroke="#000000" stroke-width="1.0" stroke-linejoin="round" stroke-linecap="butt" d="m208.31758 204.07611l183.96852 0l0 709.0079l-183.96852 0z" fill-rule="evenodd"/><path fill="#ffffff" d="m631.7192 204.07611l183.9685 0l0 709.0079l-183.9685 0z" fill-rule="evenodd"/><path stroke="#000000" stroke-width="1.0" stroke-linejoin="round" stroke-linecap="butt" d="m631.7192 204.07611l183.9685 0l0 709.0079l-183.9685 0z" fill-rule="evenodd"/><path fill="#4a86e8" d="m420.01947 204.07582l183.9685 0l0 307.90552l-183.9685 0z" fill-rule="evenodd"/><path stroke="#000000" stroke-width="1.0" stroke-linejoin="round" stroke-linecap="butt" d="m420.01947 204.07582l183.9685 0l0 307.90552l-183.9685 0z" fill-rule="evenodd"/><path fill="#00ff00" d="m420.01883 586.228l183.96848 0l0 326.86615l-183.96848 0z" fill-rule="evenodd"/><path stroke="#000000" stroke-width="1.0" stroke-linejoin="round" stroke-linecap="butt" d="m420.01883 586.228l183.96848 0l0 326.86615l-183.96848 0z" fill-rule="evenodd"/></g></svg>
